# xmcd
#
# Track frame offsets:
#        187
#        20287
#        35317
#        52165
#        70020
#        89105
#        107352
#        124030
#        143525
#        161997
#
# Disc length: 2447 seconds
#
# Revision: 2
# Processed by: cddbd v1.5.1PL0 Copyright (c) Steve Scherf et al.
# Submitted via: ExactAudioCopy v0.95b2
#
DISCID=82098d0a
DTITLE=NONE - NBA JAM SESSION
DYEAR=1994
DGENRE=
TTITLE0=ON THE BLACKTOP
TTITLE1=ABOVE THE RIM
TTITLE2=WORK
TTITLE3=JAM SESSION
TTITLE4=OUT OF CONTROL
TTITLE5=DROP IT ON THE ONE
TTITLE6=IT'S GONNA HAPPEN ONE DAY
TTITLE7=THIS IS HOW WE PLAY
TTITLE8=WE GOT IT GOIN' ON
TTITLE9=RIM SHAKER (Remix)
EXTD=
EXTT0=
EXTT1=
EXTT2=
EXTT3=
EXTT4=
EXTT5=
EXTT6=
EXTT7=
EXTT8=
EXTT9=
PLAYORDER=
